Input #0, mov,mp4,m4a,3gp,3g2,mj2, from '/home/hbattu/projects/huberman-gpt/huberman-audio/mp3/tmppdxh3zxl.mp4':
  Metadata:
    major_brand     : dash
    minor_version   : 0
    compatible_brands: iso6mp41
    creation_time   : 2023-02-22T19:09:59.000000Z
  Duration: 02:05:40.56, start: 0.000000, bitrate: 129 kb/s
    Stream #0:0(eng): Audio: aac (LC) (mp4a / 0x6134706D), 44100 Hz, stereo, fltp, 0 kb/s (default)
    Metadata:
      creation_time   : 2023-02-22T19:09:59.000000Z
      handler_name    : ISO Media file produced by Google Inc.
Stream mapping:
  Stream #0:0 -> #0:0 (aac (native) -> mp3 (libmp3lame))
Press [q] to stop, [?] for help
[graph_0_in_0_0 @ 0x565153d24000] tb:1/44100 samplefmt:fltp samplerate:44100 chlayout:0x3
Output #0, mp3, to '../huberman-audio/mp3/BMTt8gSl13s.mp3':
  Metadata:
    major_brand     : dash
    minor_version   : 0
    compatible_brands: iso6mp41
    TSSE            : Lavf58.29.100
    Stream #0:0(eng): Audio: mp3 (libmp3lame), 44100 Hz, stereo, fltp, delay 1105 (default)
    Metadata:
      creation_time   : 2023-02-22T19:09:59.000000Z
      handler_name    : ISO Media file produced by Google Inc.
      encoder         : Lavc58.54.100 libmp3lame
No more output streams to write to, finishing.
size=  117822kB time=02:05:40.58 bitrate= 128.0kbits/s speed=94.5x    
[AVIOContext @ 0x565153c13900] Statistics: 0 seeks, 160 writeouts
video:0kB audio:117822kB subtitle:0kB other streams:0kB global headers:0kB muxing overhead: 0.000287%
Input file #0 (/home/hbattu/projects/huberman-gpt/huberman-audio/mp3/tmppdxh3zxl.mp4):
  Input stream #0:0 (audio): 324745 packets read (120649026 bytes); 324745 frames decoded (332538880 samples); 
  Total: 324745 packets (120649026 bytes) demuxed
Output file #0 (../huberman-audio/mp3/BMTt8gSl13s.mp3):
  Output stream #0:0 (audio): 288663 frames encoded (332538880 samples); 288664 packets muxed (120649769 bytes); 
  Total: 288664 packets (120649769 bytes) muxed
[AVIOContext @ 0x565153c38a40] Statistics: 2 seeks, 462 writeouts
[AVIOContext @ 0x565153c1c880] Statistics: 122036366 bytes read, 0 seeks
